<?xml version="1.0" encoding="utf-8"?>
<!-- Generator: Adobe Illustrator 19.2.0, SVG Export Plug-In . SVG Version: 6.00 Build 0)  -->
<svg version="1.1" id="Layer_1" xmlns="http://www.w3.org/2000/svg" xmlns:xlink="http://www.w3.org/1999/xlink" x="0px" y="0px"
	 viewBox="0 0 34 50.2" style="enable-background:new 0 0 34 50.2;" xml:space="preserve">
<style type="text/css">
	.st0{fill:#FFFFFF;}
	.st1{fill:#F16724;}
</style>
<circle class="st0" cx="17" cy="26.5" r="11.3"/>
<path class="st1" d="M29.7,25.4c0-7-5.6-12.7-12.7-12.7S4.3,18.5,4.3,25.4c0,2.5,0.7,4.8,1.9,6.7l0,0l10.6,18l10.9-18l0,0
	C29,30.2,29.7,27.9,29.7,25.4z M9.4,28.5c-1.2-0.9-2-2.4-2-4.1s0.8-3.2,2-4.1c-0.8,1-1.2,2.5-1.2,4.1S8.7,27.4,9.4,28.5z M9.5,24.4
	c0-2.6,1.2-5,3.2-6.3c-1.2,1.5-1.9,3.8-1.9,6.3s0.7,4.8,1.9,6.3C10.7,29.3,9.5,27,9.5,24.4z M16.2,33.1c-2.5-1.9-3.9-5.1-3.9-8.7
	s1.5-6.9,3.9-8.7c-1.5,2.2-2.3,5.3-2.3,8.7S14.8,30.9,16.2,33.1z M17.8,36.7c1.5-2.2,2.3-5.3,2.3-8.7s-0.9-6.7-2.3-8.7
	c2.5,1.9,3.9,5.1,3.9,8.7S20.3,34.7,17.8,36.7z M21.4,34.3c1.2-1.5,1.9-3.8,1.9-6.3s-0.7-4.8-1.9-6.3c1.9,1.4,3.2,3.7,3.2,6.3
	S23.4,32.9,21.4,34.3z M24.7,31.9c0.7-1,1.2-2.5,1.2-4.1c0-1.6-0.5-3.1-1.2-4.1c1.2,0.9,2,2.4,2,4.1S25.9,31.1,24.7,31.9z"/>
</svg>
