<?xml version="1.0" encoding="utf-8"?>
<!-- Generator: Adobe Illustrator 19.2.0, SVG Export Plug-In . SVG Version: 6.00 Build 0)  -->
<svg version="1.1" id="Layer_1" xmlns="http://www.w3.org/2000/svg" xmlns:xlink="http://www.w3.org/1999/xlink" x="0px" y="0px"
	 viewBox="0 0 200 200" style="enable-background:new 0 0 200 200;" xml:space="preserve">
<style type="text/css">
	.st0{fill:none;stroke:#F06725;stroke-width:4.0345;stroke-miterlimit:10;}
	.st1{fill:#FFFFFF;stroke:#F06725;stroke-width:4.0345;stroke-miterlimit:10;}
	.st2{fill:#2D5EAC;}
	.st3{fill-rule:evenodd;clip-rule:evenodd;fill:#D3D8DE;}
</style>
<g>
	<rect x="9.1" y="28.8" class="st0" width="144.9" height="109.8"/>
	<rect x="4.2" y="78.8" class="st1" width="9.8" height="9.8"/>
	<rect x="4.2" y="133.7" class="st1" width="9.8" height="9.8"/>
	<rect x="4.2" y="23.9" class="st1" width="9.8" height="9.8"/>
	<rect x="76.7" y="133.7" class="st1" width="9.8" height="9.8"/>
	<rect x="149.1" y="78.8" class="st1" width="9.8" height="9.8"/>
	<rect x="149.1" y="23.9" class="st1" width="9.8" height="9.8"/>
	<rect x="76.7" y="23.9" class="st1" width="9.8" height="9.8"/>
	<rect x="149.1" y="133.7" class="st1" width="9.8" height="9.8"/>
	<path class="st2" d="M50.6,49.8v18.9h1.9c0.8-5,2.6-8.8,5.4-11.5c2-1.9,5.3-2.9,9.9-2.9h4.9v51.8c0,3.4-0.2,5.5-0.6,6.2
		c-0.5,1.1-1.2,1.9-2,2.4c-1.2,0.7-2.8,1-4.7,1h-2.2v1.8H100v-1.8h-2.2c-1.9,0-3.5-0.4-4.7-1c-0.9-0.5-1.5-1.3-2-2.4
		c-0.4-0.8-0.6-2.9-0.6-6.2V54.3h4.9c4.5,0,7.8,0.9,9.9,2.9c2.9,2.7,4.7,6.5,5.4,11.5h1.9V49.8H50.6z"/>
	<polygon class="st3" points="195.8,167.1 166.4,139.5 191.5,128.8 123,102.7 150.4,176.1 159.2,146.8 188.8,174.6 	"/>
</g>
</svg>
