<?xml version="1.0" encoding="utf-8"?>
<!-- Generator: Adobe Illustrator 19.2.0, SVG Export Plug-In . SVG Version: 6.00 Build 0)  -->
<svg version="1.1" id="Layer_1" xmlns="http://www.w3.org/2000/svg" xmlns:xlink="http://www.w3.org/1999/xlink" x="0px" y="0px"
	 viewBox="0 0 24 24" style="enable-background:new 0 0 24 24;" xml:space="preserve">
<style type="text/css">
	.st0{fill:#6D93D2;}
</style>
<g>
	<path class="st0" d="M15.2,4.7c0.7,0,1.3,0,2,0c0.1,0,0.1,0,0.2,0V1.1c-0.4,0-0.7-0.1-1.1-0.1c-0.7,0-1.4-0.1-2,0
		c-1.1,0-2,0.2-3,0.9c-0.9,0.6-1.5,1.7-1.7,2.8C9.6,5.3,9.6,5.7,9.6,6.3c0,0.8,0,1.5,0,2.4v0.2H6.2v3.9h3.3v9.8h4v-9.7h3.3
		c0.1-1.3,0.4-2.6,0.5-3.9c-0.2,0-0.5,0-0.7,0c-0.9,0-3.1,0-3.1,0s0-1.9,0-2.7C13.7,5,14.4,4.7,15.2,4.7z"/>
</g>
</svg>
