<?xml version="1.0" encoding="utf-8"?>
<!-- Generator: Adobe Illustrator 19.2.0, SVG Export Plug-In . SVG Version: 6.00 Build 0)  -->
<svg version="1.1" id="Layer_1" xmlns="http://www.w3.org/2000/svg" xmlns:xlink="http://www.w3.org/1999/xlink" x="0px" y="0px"
	 viewBox="0 0 1929 1080" style="enable-background:new 0 0 1929 1080;" xml:space="preserve">
<style type="text/css">
	.st0{fill:#164A9D;}
	.st1{opacity:0.4;fill:#0D3F8E;enable-background:new    ;}
	.st2{fill:url(#SVGID_1_);}
	.st3{fill:url(#SVGID_2_);}
	.st4{fill:url(#SVGID_3_);}
	.st5{fill:url(#SVGID_4_);}
	.st6{fill:url(#SVGID_5_);}
	.st7{fill:url(#SVGID_6_);}
	.st8{fill:url(#SVGID_7_);}
	.st9{fill:url(#SVGID_8_);}
</style>
<rect x="2.9" y="-0.2" class="st0" width="1419.2" height="1081.6"/>
<polygon class="st1" points="1644.8,540.7 1361.3,2.1 1078,540.7 1361.3,540.7 "/>
<polygon class="st1" points="1644.8,540.4 1361.3,1079.2 1078,540.4 1361.3,540.4 "/>
<circle class="st1" cx="857.7" cy="7.9" r="182.2"/>
<circle class="st1" cx="857.7" cy="1084.8" r="182.2"/>
<circle class="st1" cx="857.7" cy="543.7" r="182.2"/>
<polygon class="st1" points="470.6,95.8 270.8,95.8 470.6,475.6 670.5,95.8 "/>
<polygon class="st1" points="470.6,1003 270.8,1003 470.6,623 670.5,1003 "/>
<circle class="st1" cx="88.8" cy="281.9" r="182"/>
<circle class="st1" cx="88.8" cy="816.8" r="182"/>
<linearGradient id="SVGID_1_" gradientUnits="userSpaceOnUse" x1="1644.8361" y1="-405.0328" x2="1644.8361" y2="639.5633" gradientTransform="matrix(1 0 0 1 0 420)">
	<stop  offset="0" style="stop-color:#3A4C95"/>
	<stop  offset="1" style="stop-color:#557DBD"/>
</linearGradient>
<rect x="1360.7" y="1" class="st2" width="568.3" height="1080.4"/>
<linearGradient id="SVGID_2_" gradientUnits="userSpaceOnUse" x1="1502.7903" y1="-412.0135" x2="1502.7903" y2="110.2847" gradientTransform="matrix(1 0 0 1 0 420)">
	<stop  offset="0" style="stop-color:#3A4C95"/>
	<stop  offset="1" style="stop-color:#557DBD"/>
</linearGradient>
<rect x="1360.7" y="1" class="st3" width="284.2" height="540.2"/>
<linearGradient id="SVGID_3_" gradientUnits="userSpaceOnUse" x1="1502.7903" y1="128.1657" x2="1502.7903" y2="650.4639" gradientTransform="matrix(1 0 0 1 0 420)">
	<stop  offset="0" style="stop-color:#3A4C95"/>
	<stop  offset="1" style="stop-color:#557DBD"/>
</linearGradient>
<rect x="1360.7" y="541.2" class="st4" width="284.2" height="540.2"/>
<linearGradient id="SVGID_4_" gradientUnits="userSpaceOnUse" x1="1502.7903" y1="112.5295" x2="1502.7903" y2="-391.0756" gradientTransform="matrix(1 0 0 1 0 420)">
	<stop  offset="0" style="stop-color:#3A4C95"/>
	<stop  offset="1" style="stop-color:#F16724"/>
</linearGradient>
<polyline class="st5" points="1360.7,1 1644.9,1 1644.9,541.2 "/>
<linearGradient id="SVGID_5_" gradientUnits="userSpaceOnUse" x1="1502.7903" y1="125.4934" x2="1502.7903" y2="659.3477" gradientTransform="matrix(1 0 0 1 0 420)">
	<stop  offset="0" style="stop-color:#FDD40A"/>
	<stop  offset="1" style="stop-color:#F16724"/>
</linearGradient>
<polyline class="st6" points="1360.7,1081.4 1360.7,541.2 1644.9,541.2 "/>
<linearGradient id="SVGID_6_" gradientUnits="userSpaceOnUse" x1="1786.9181" y1="-152.3698" x2="1786.9181" y2="-614.5937" gradientTransform="matrix(1 0 0 1 0 420)">
	<stop  offset="0" style="stop-color:#3A4C95"/>
	<stop  offset="1" style="stop-color:#F16724"/>
</linearGradient>
<path class="st7" d="M1909.1,284.7c6.7,0,13.3-0.3,19.9-0.7V1h-283.6c-0.4,5.7-0.6,13.7-0.6,19.4
	C1644.9,166.5,1763.2,284.7,1909.1,284.7z"/>
<linearGradient id="SVGID_7_" gradientUnits="userSpaceOnUse" x1="1786.9181" y1="362.2355" x2="1786.9181" y2="-107.3402" gradientTransform="matrix(1 0 0 1 0 420)">
	<stop  offset="0" style="stop-color:#3A4C95"/>
	<stop  offset="1" style="stop-color:#F16724"/>
</linearGradient>
<path class="st8" d="M1909.1,814.2c6.7,0,13.3-0.3,19.9-0.7V286.2c-6.6-0.5-13.2-0.7-19.9-0.7c-146-0.1-264.3,118.2-264.3,264.3
	S1763.2,814.2,1909.1,814.2z"/>
<linearGradient id="SVGID_8_" gradientUnits="userSpaceOnUse" x1="1786.882" y1="877.0901" x2="1786.882" y2="428.7538" gradientTransform="matrix(1 0 0 1 0 420)">
	<stop  offset="0" style="stop-color:#3A4C95"/>
	<stop  offset="1" style="stop-color:#F16724"/>
</linearGradient>
<path class="st9" d="M1929,814.8c-6.6-0.5-13.2-0.7-19.9-0.7c-146,0-264.4,121.3-264.4,267.2H1929V814.8z"/>
</svg>
