<?xml version="1.0" encoding="utf-8"?>
<!-- Generator: Adobe Illustrator 19.2.0, SVG Export Plug-In . SVG Version: 6.00 Build 0)  -->
<svg version="1.1" id="Layer_1" xmlns="http://www.w3.org/2000/svg" xmlns:xlink="http://www.w3.org/1999/xlink" x="0px" y="0px"
	 viewBox="0 0 1914 1074" style="enable-background:new 0 0 1914 1074;" xml:space="preserve">
<style type="text/css">
	.st0{clip-path:url(#SVGID_2_);}
	.st1{clip-path:url(#SVGID_4_);}
	.st2{clip-path:url(#SVGID_6_);}
	.st3{fill:#164A9D;}
	.st4{opacity:0.4;fill:#0D3F8E;enable-background:new    ;}
	.st5{fill:url(#SVGID_7_);}
	.st6{fill:url(#SVGID_8_);}
	.st7{fill:url(#SVGID_9_);}
	.st8{fill:url(#SVGID_10_);}
	.st9{fill:url(#SVGID_11_);}
	.st10{fill:url(#SVGID_12_);}
	.st11{fill:url(#SVGID_13_);}
	.st12{fill:url(#SVGID_14_);}
	.st13{opacity:0.6;fill:url(#SVGID_15_);enable-background:new    ;}
</style>
<g>
	<g>
		<defs>
			<rect id="SVGID_1_" x="-2.4" y="-2.2" width="1918.8" height="1078.5"/>
		</defs>
		<clipPath id="SVGID_2_">
			<use xlink:href="#SVGID_1_"  style="overflow:visible;"/>
		</clipPath>
		<g class="st0">
			<g>
				<g>
					<defs>
						<rect id="SVGID_3_" x="-2.6" y="-3.8" width="1920" height="1080"/>
					</defs>
					<clipPath id="SVGID_4_">
						<use xlink:href="#SVGID_3_"  style="overflow:visible;"/>
					</clipPath>
					<g class="st1">
						<g>
							<g>
								<g>
									<defs>
										<rect id="SVGID_5_" x="-3.6" y="-3.8" width="1931.4" height="1080"/>
									</defs>
									<clipPath id="SVGID_6_">
										<use xlink:href="#SVGID_5_"  style="overflow:visible;"/>
									</clipPath>
									<g class="st2">
										<rect x="510.5" y="-4" class="st3" width="1419.2" height="1081.6"/>
										<path class="st4" d="M811.8,16.6c0-5.7-0.2-13.7-0.6-19.4H527.6v283c6.6,0.4,13.2,0.7,19.9,0.7
											C693.4,281,811.7,162.8,811.8,16.6z"/>
										<path class="st4" d="M811.8,546c0-146.1-118.3-264.4-264.3-264.3c-6.7,0-13.3,0.2-19.9,0.7v527.3
											c6.6,0.4,13.2,0.7,19.9,0.7C693.4,810.5,811.8,692.2,811.8,546z"/>
										<path class="st4" d="M527.6,1077.6h284.3c0-145.9-118.4-267.2-264.4-267.2c-6.7,0-13.3,0.2-19.9,0.7V1077.6L527.6,1077.6z
											"/>
										<polygon class="st4" points="2152.4,357.8 1868.9,-180.9 1585.6,357.8 1868.9,357.8 										"/>
										<polygon class="st4" points="2152.4,722.2 1868.9,1260.9 1585.6,722.2 1868.9,722.2 										"/>
										<circle class="st4" cx="1390.3" cy="4.1" r="182.2"/>
										<circle class="st4" cx="1390.3" cy="1081.1" r="182.2"/>
										<circle class="st4" cx="1390.3" cy="540" r="182.2"/>
										<polygon class="st4" points="1020.2,92.1 820.4,92.1 1020.2,471.9 1220.1,92.1 										"/>
										<polygon class="st4" points="1020.2,999.2 820.4,999.2 1020.2,619.2 1220.1,999.2 										"/>
										
											<linearGradient id="SVGID_7_" gradientUnits="userSpaceOnUse" x1="281.75" y1="3392.2798" x2="281.75" y2="2347.6838" gradientTransform="matrix(1 0 0 -1 0 3403.5)">
											<stop  offset="0" style="stop-color:#3A4C95"/>
											<stop  offset="1" style="stop-color:#557DBD"/>
										</linearGradient>
										<rect x="-2.4" y="-2.8" class="st5" width="568.3" height="1080.4"/>
										
											<linearGradient id="SVGID_8_" gradientUnits="userSpaceOnUse" x1="139.7" y1="3399.2605" x2="139.7" y2="2876.9624" gradientTransform="matrix(1 0 0 -1 0 3403.5)">
											<stop  offset="0" style="stop-color:#3A4C95"/>
											<stop  offset="1" style="stop-color:#557DBD"/>
										</linearGradient>
										<rect x="-2.4" y="-2.8" class="st6" width="284.2" height="540.2"/>
										
											<linearGradient id="SVGID_9_" gradientUnits="userSpaceOnUse" x1="139.7" y1="2859.0813" x2="139.7" y2="2336.7832" gradientTransform="matrix(1 0 0 -1 0 3403.5)">
											<stop  offset="0" style="stop-color:#3A4C95"/>
											<stop  offset="1" style="stop-color:#557DBD"/>
										</linearGradient>
										<rect x="-2.4" y="537.5" class="st7" width="284.2" height="540.2"/>
										
											<linearGradient id="SVGID_10_" gradientUnits="userSpaceOnUse" x1="139.7" y1="2874.7175" x2="139.7" y2="3378.3228" gradientTransform="matrix(1 0 0 -1 0 3403.5)">
											<stop  offset="0" style="stop-color:#3A4C95"/>
											<stop  offset="1" style="stop-color:#F16724"/>
										</linearGradient>
										<polyline class="st8" points="-2.4,-2.8 281.8,-2.8 281.8,537.5 										"/>
										
											<linearGradient id="SVGID_11_" gradientUnits="userSpaceOnUse" x1="139.7" y1="2861.7537" x2="139.7" y2="2327.8994" gradientTransform="matrix(1 0 0 -1 0 3403.5)">
											<stop  offset="0" style="stop-color:#FDD40A"/>
											<stop  offset="1" style="stop-color:#F16724"/>
										</linearGradient>
										<polyline class="st9" points="-2.4,1077.7 -2.4,537.5 281.8,537.5 										"/>
										
											<linearGradient id="SVGID_12_" gradientUnits="userSpaceOnUse" x1="423.8" y1="3139.6167" x2="423.8" y2="3601.8408" gradientTransform="matrix(1 0 0 -1 0 3403.5)">
											<stop  offset="0" style="stop-color:#3A4C95"/>
											<stop  offset="1" style="stop-color:#F16724"/>
										</linearGradient>
										<path class="st10" d="M546,281c6.7,0,13.3-0.3,19.9-0.7v-283H282.3c-0.4,5.7-0.6,13.7-0.6,19.4
											C281.8,162.8,400.1,281,546,281z"/>
										
											<linearGradient id="SVGID_13_" gradientUnits="userSpaceOnUse" x1="423.8" y1="2625.0115" x2="423.8" y2="3094.5874" gradientTransform="matrix(1 0 0 -1 0 3403.5)">
											<stop  offset="0" style="stop-color:#3A4C95"/>
											<stop  offset="1" style="stop-color:#F16724"/>
										</linearGradient>
										<path class="st11" d="M546,810.5c6.7,0,13.3-0.3,19.9-0.7V282.5c-6.6-0.5-13.2-0.7-19.9-0.7
											C400,281.6,281.7,400,281.7,546S400.1,810.5,546,810.5z"/>
										
											<linearGradient id="SVGID_14_" gradientUnits="userSpaceOnUse" x1="423.7499" y1="2110.157" x2="423.75" y2="2558.4932" gradientTransform="matrix(1 0 0 -1 0 3403.5)">
											<stop  offset="0" style="stop-color:#3A4C95"/>
											<stop  offset="1" style="stop-color:#F16724"/>
										</linearGradient>
										<path class="st12" d="M565.9,811c-6.6-0.5-13.2-0.7-19.9-0.7c-146,0-264.4,121.3-264.4,267.2h284.3L565.9,811L565.9,811z"
											/>
										
											<linearGradient id="SVGID_15_" gradientUnits="userSpaceOnUse" x1="1120.1499" y1="-589.1576" x2="1120.15" y2="-1034.6493" gradientTransform="matrix(1 0 0 1 0 1027.0059)">
											<stop  offset="0" style="stop-color:#164A9D"/>
											<stop  offset="1" style="stop-color:#557DBD"/>
										</linearGradient>
										<polyline class="st13" points="1020.2,471.9 1220.1,92.1 1020.2,92.1 										"/>
									</g>
								</g>
							</g>
						</g>
					</g>
				</g>
			</g>
		</g>
	</g>
</g>
</svg>
