<?xml version="1.0" encoding="utf-8"?>
<!-- Generator: Adobe Illustrator 19.2.0, SVG Export Plug-In . SVG Version: 6.00 Build 0)  -->
<svg version="1.1" id="Layer_1" xmlns="http://www.w3.org/2000/svg" xmlns:xlink="http://www.w3.org/1999/xlink" x="0px" y="0px"
	 viewBox="0 0 1929 1080" style="enable-background:new 0 0 1929 1080;" xml:space="preserve">
<style type="text/css">
	.st0{fill:#164A9D;}
	.st1{opacity:0.4;fill:#0D3F8E;enable-background:new    ;}
	.st2{fill:url(#SVGID_1_);}
	.st3{fill:url(#SVGID_2_);}
	.st4{fill:url(#SVGID_3_);}
	.st5{fill:url(#SVGID_4_);}
	.st6{fill:url(#SVGID_5_);}
	.st7{fill:url(#SVGID_6_);}
	.st8{fill:url(#SVGID_7_);}
	.st9{fill:url(#SVGID_8_);}
</style>
<rect x="512.9" y="-0.2" class="st0" width="1419.2" height="1081.6"/>
<path class="st1" d="M814.2,20.4c0-5.7-0.2-13.7-0.6-19.4H530v283c6.6,0.4,13.2,0.7,19.9,0.7C695.8,284.7,814.1,166.5,814.2,20.4z"
	/>
<path class="st1" d="M814.2,549.8c0-146.1-118.3-264.4-264.3-264.3c-6.7,0-13.3,0.2-19.9,0.7v527.3c6.6,0.4,13.2,0.7,19.9,0.7
	C695.8,814.2,814.2,695.9,814.2,549.8z"/>
<path class="st1" d="M530,1081.3h284.3c0-145.9-118.4-267.2-264.4-267.2c-6.7,0-13.3,0.2-19.9,0.7V1081.3z"/>
<polygon class="st1" points="2154.8,361.5 1871.3,-177.1 1588,361.5 1871.3,361.5 "/>
<polygon class="st1" points="2154.8,725.9 1871.3,1264.7 1588,725.9 1871.3,725.9 "/>
<circle class="st1" cx="1392.7" cy="7.9" r="182.2"/>
<circle class="st1" cx="1392.7" cy="1084.8" r="182.2"/>
<circle class="st1" cx="1392.7" cy="543.7" r="182.2"/>
<polygon class="st1" points="1022.6,95.8 822.8,95.8 1022.6,475.6 1222.5,95.8 "/>
<polygon class="st1" points="1022.6,1003 822.8,1003 1022.6,623 1222.5,1003 "/>
<g>
	
		<linearGradient id="SVGID_1_" gradientUnits="userSpaceOnUse" x1="284.15" y1="-1285.0328" x2="284.15" y2="-240.4366" gradientTransform="matrix(1 0 0 1 0 1300)">
		<stop  offset="0" style="stop-color:#3A4C95"/>
		<stop  offset="1" style="stop-color:#557DBD"/>
	</linearGradient>
	<rect y="1" class="st2" width="568.3" height="1080.4"/>
	
		<linearGradient id="SVGID_2_" gradientUnits="userSpaceOnUse" x1="142.1" y1="-1292.0134" x2="142.1" y2="-769.7153" gradientTransform="matrix(1 0 0 1 0 1300)">
		<stop  offset="0" style="stop-color:#3A4C95"/>
		<stop  offset="1" style="stop-color:#557DBD"/>
	</linearGradient>
	<rect y="1" class="st3" width="284.2" height="540.2"/>
	
		<linearGradient id="SVGID_3_" gradientUnits="userSpaceOnUse" x1="142.1" y1="-751.8343" x2="142.1" y2="-229.5361" gradientTransform="matrix(1 0 0 1 0 1300)">
		<stop  offset="0" style="stop-color:#3A4C95"/>
		<stop  offset="1" style="stop-color:#557DBD"/>
	</linearGradient>
	<rect y="541.2" class="st4" width="284.2" height="540.2"/>
	
		<linearGradient id="SVGID_4_" gradientUnits="userSpaceOnUse" x1="142.1" y1="-767.4705" x2="142.1" y2="-1271.0756" gradientTransform="matrix(1 0 0 1 0 1300)">
		<stop  offset="0" style="stop-color:#3A4C95"/>
		<stop  offset="1" style="stop-color:#F16724"/>
	</linearGradient>
	<polyline class="st5" points="0,1 284.2,1 284.2,541.2 	"/>
	
		<linearGradient id="SVGID_5_" gradientUnits="userSpaceOnUse" x1="142.1" y1="-754.5066" x2="142.1" y2="-220.6523" gradientTransform="matrix(1 0 0 1 0 1300)">
		<stop  offset="0" style="stop-color:#FDD40A"/>
		<stop  offset="1" style="stop-color:#F16724"/>
	</linearGradient>
	<polyline class="st6" points="0,1081.4 0,541.2 284.2,541.2 	"/>
	
		<linearGradient id="SVGID_6_" gradientUnits="userSpaceOnUse" x1="426.2" y1="-1032.3698" x2="426.2" y2="-1494.5936" gradientTransform="matrix(1 0 0 1 0 1300)">
		<stop  offset="0" style="stop-color:#3A4C95"/>
		<stop  offset="1" style="stop-color:#F16724"/>
	</linearGradient>
	<path class="st7" d="M548.4,284.7c6.7,0,13.3-0.3,19.9-0.7V1H284.7c-0.4,5.7-0.6,13.7-0.6,19.4
		C284.2,166.5,402.5,284.7,548.4,284.7z"/>
	
		<linearGradient id="SVGID_7_" gradientUnits="userSpaceOnUse" x1="426.2" y1="-517.7645" x2="426.2" y2="-987.3402" gradientTransform="matrix(1 0 0 1 0 1300)">
		<stop  offset="0" style="stop-color:#3A4C95"/>
		<stop  offset="1" style="stop-color:#F16724"/>
	</linearGradient>
	<path class="st8" d="M548.4,814.2c6.7,0,13.3-0.3,19.9-0.7V286.2c-6.6-0.5-13.2-0.7-19.9-0.7c-146-0.1-264.3,118.2-264.3,264.3
		S402.5,814.2,548.4,814.2z"/>
	
		<linearGradient id="SVGID_8_" gradientUnits="userSpaceOnUse" x1="426.15" y1="-2.9099" x2="426.15" y2="-451.2462" gradientTransform="matrix(1 0 0 1 0 1300)">
		<stop  offset="0" style="stop-color:#3A4C95"/>
		<stop  offset="1" style="stop-color:#F16724"/>
	</linearGradient>
	<path class="st9" d="M568.3,814.8c-6.6-0.5-13.2-0.7-19.9-0.7c-146,0-264.4,121.3-264.4,267.2h284.3L568.3,814.8L568.3,814.8z"/>
</g>
</svg>
