<?xml version="1.0" encoding="utf-8"?>
<!-- Generator: Adobe Illustrator 19.2.0, SVG Export Plug-In . SVG Version: 6.00 Build 0)  -->
<svg version="1.1" id="Layer_1" xmlns="http://www.w3.org/2000/svg" xmlns:xlink="http://www.w3.org/1999/xlink" x="0px" y="0px"
	 viewBox="0 0 1914 1074" style="enable-background:new 0 0 1914 1074;" xml:space="preserve">
<style type="text/css">
	.st0{clip-path:url(#SVGID_2_);}
	.st1{fill:#EA672D;}
	.st2{fill:url(#SVGID_3_);}
	.st3{fill:url(#SVGID_4_);}
	.st4{fill:url(#SVGID_5_);}
	.st5{fill:url(#SVGID_6_);}
	.st6{fill:url(#SVGID_7_);}
	.st7{fill:url(#SVGID_8_);}
	.st8{fill:url(#SVGID_9_);}
	.st9{fill:url(#SVGID_10_);}
	.st10{fill:url(#SVGID_11_);}
	.st11{fill:url(#SVGID_12_);}
	.st12{opacity:0.5;fill:#DD5A31;enable-background:new    ;}
	.st13{fill:url(#SVGID_13_);}
	.st14{opacity:0.6;fill:url(#SVGID_14_);enable-background:new    ;}
</style>
<g>
	<g>
		<defs>
			<rect id="SVGID_1_" x="-3" y="-3" width="1920" height="1080"/>
		</defs>
		<clipPath id="SVGID_2_">
			<use xlink:href="#SVGID_1_"  style="overflow:visible;"/>
		</clipPath>
		<g class="st0">
			<rect x="-7.5" y="-3.2" class="st1" width="1927" height="1081.6"/>
			
				<linearGradient id="SVGID_3_" gradientUnits="userSpaceOnUse" x1="1495.2999" y1="-266.3739" x2="1495.2999" y2="108.3826" gradientTransform="matrix(1 0 0 1 0 1023.0405)">
				<stop  offset="0" style="stop-color:#FDD40A"/>
				<stop  offset="1" style="stop-color:#F16724"/>
			</linearGradient>
			<rect x="1353.2" y="795" class="st2" width="284.2" height="281.2"/>
			
				<linearGradient id="SVGID_4_" gradientUnits="userSpaceOnUse" x1="1499.2999" y1="-85" x2="1499.3" y2="325.0469" gradientTransform="matrix(1 0 0 -1 0 1074)">
				<stop  offset="0" style="stop-color:#FDD40A"/>
				<stop  offset="1" style="stop-color:#F16724"/>
			</linearGradient>
			<path class="st3" d="M1645.4,1081V807.4c-6.8-0.4-13.6-0.7-20.5-0.7c-150,0-271.7,121.6-271.7,271.8c0,0.9,0,1.7,0,2.6
				L1645.4,1081L1645.4,1081z"/>
			
				<linearGradient id="SVGID_5_" gradientUnits="userSpaceOnUse" x1="1495.2999" y1="772.4791" x2="1495.2999" y2="1093.0076" gradientTransform="matrix(1 0 0 -1 0 1074)">
				<stop  offset="0" style="stop-color:#FDD40A"/>
				<stop  offset="1" style="stop-color:#F16724"/>
			</linearGradient>
			<rect x="1353.2" y="-2" class="st4" width="284.2" height="271.6"/>
			
				<linearGradient id="SVGID_6_" gradientUnits="userSpaceOnUse" x1="1499.2999" y1="1145.0848" x2="1499.3" y2="892.9717" gradientTransform="matrix(1 0 0 -1 0 1074)">
				<stop  offset="0" style="stop-color:#FDD40A"/>
				<stop  offset="1" style="stop-color:#F16724"/>
			</linearGradient>
			<path class="st5" d="M1353.2-6.7c0,0.6,0,1.2,0,1.8c0,150.2,121.7,271.8,271.7,271.8c6.9,0,13.7-0.3,20.5-0.7V-6.7H1353.2z"/>
			
				<linearGradient id="SVGID_7_" gradientUnits="userSpaceOnUse" x1="1781.4" y1="825.2557" x2="1781.4" y2="1063.4916" gradientTransform="matrix(1 0 0 -1 0 1074)">
				<stop  offset="0" style="stop-color:#3A4C95"/>
				<stop  offset="1" style="stop-color:#F16724"/>
			</linearGradient>
			<rect x="1637.3" y="-0.9" class="st6" width="288.2" height="269"/>
			
				<linearGradient id="SVGID_8_" gradientUnits="userSpaceOnUse" x1="1781.45" y1="16.4133" x2="1781.4501" y2="255.3576" gradientTransform="matrix(1 0 0 -1 0 1074)">
				<stop  offset="0" style="stop-color:#3A4C95"/>
				<stop  offset="1" style="stop-color:#F16724"/>
			</linearGradient>
			<rect x="1637.4" y="807.2" class="st7" width="288.1" height="269.8"/>
			
				<linearGradient id="SVGID_9_" gradientUnits="userSpaceOnUse" x1="1495.2999" y1="535.1806" x2="1495.2999" y2="808.4551" gradientTransform="matrix(1 0 0 -1 0 1074)">
				<stop  offset="0" style="stop-color:#3A4C95"/>
				<stop  offset="1" style="stop-color:#F16724"/>
			</linearGradient>
			<rect x="1353.2" y="267" class="st8" width="284.2" height="269"/>
			
				<linearGradient id="SVGID_10_" gradientUnits="userSpaceOnUse" x1="1495.2999" y1="286.1557" x2="1495.2999" y2="524.3916" gradientTransform="matrix(1 0 0 -1 0 1074)">
				<stop  offset="0" style="stop-color:#3A4C95"/>
				<stop  offset="1" style="stop-color:#F16724"/>
			</linearGradient>
			<rect x="1353.2" y="538.2" class="st9" width="284.2" height="269"/>
			
				<linearGradient id="SVGID_11_" gradientUnits="userSpaceOnUse" x1="1637.35" y1="985.2256" x2="1637.35" y2="-74.0333" gradientTransform="matrix(1 0 0 -1 0 1074)">
				<stop  offset="0" style="stop-color:#FDD40A"/>
				<stop  offset="1" style="stop-color:#F16724"/>
			</linearGradient>
			<polygon class="st10" points="1921.5,-2 1353.2,538.2 1921.5,1078.3 			"/>
			
				<linearGradient id="SVGID_12_" gradientUnits="userSpaceOnUse" x1="1779.4" y1="712.1983" x2="1779.4" y2="255.354" gradientTransform="matrix(1 0 0 -1 0 1074)">
				<stop  offset="0" style="stop-color:#3A4C95"/>
				<stop  offset="1" style="stop-color:#F16724"/>
			</linearGradient>
			<rect x="1637.3" y="267" class="st11" width="284.2" height="540.2"/>
			<path class="st12" d="M878.2,268.5c148.7,0,269.3,120.6,269.3,269.3s-120.6,269.3-269.3,269.3"/>
			
				<linearGradient id="SVGID_13_" gradientUnits="userSpaceOnUse" x1="1783.4" y1="-1551.6593" x2="1783.4" y2="-2034.3799" gradientTransform="matrix(1 0 0 1 0 2330)">
				<stop  offset="0" style="stop-color:#3A4C95"/>
				<stop  offset="1" style="stop-color:#F16724"/>
			</linearGradient>
			<path class="st13" d="M1909,811.2c6.9,0,13.7-0.3,20.5-0.7V268.4c-6.8-0.5-13.6-0.7-20.5-0.7c-150.1-0.1-271.7,121.5-271.7,271.7
				S1759,811.2,1909,811.2z"/>
			<polygon class="st12" points="1069,267 1353.2,267 1353.2,536 			"/>
			<polygon class="st12" points="1353.2,538.2 1353.2,807.2 1069,807.2 			"/>
			<path class="st12" d="M1353.2,1077c0-149-120.8-269.8-269.8-269.8S813.5,928,813.5,1077H1353.2z"/>
			<path class="st12" d="M813.5-2.8L813.5-2.8c0,149,120.8,269.8,269.8,269.8s269.8-120.8,269.8-269.8l0,0L813.5-2.8L813.5-2.8z"/>
			<rect x="608.9" y="268.5" class="st12" width="269.3" height="538.7"/>
			<path class="st1" d="M878.2,807.2c-148.7,0-269.3-120.6-269.3-269.3s120.6-269.4,269.3-269.4"/>
			<rect x="55.4" y="268.5" class="st12" width="269.3" height="538.7"/>
			<path class="st1" d="M55.3,268.5c148.7,0,269.3,120.6,269.3,269.3S204.1,807.2,55.3,807.2"/>
			<polygon class="st12" points="324.7,809.3 608.9,809.3 608.9,1078.3 			"/>
			
				<linearGradient id="SVGID_14_" gradientUnits="userSpaceOnUse" x1="466.8" y1="-671" x2="466.8" y2="-983.0007" gradientTransform="matrix(1 0 0 1 0 1030)">
				<stop  offset="0" style="stop-color:#FDD40A"/>
				<stop  offset="1" style="stop-color:#F16724"/>
			</linearGradient>
			<polygon class="st14" points="608.9,-0.7 608.9,268.3 324.7,268.3 			"/>
			<path class="st12" d="M-7.5,275.9v523.9c20.1,4.8,41.2,7.4,62.8,7.4V268.5C33.7,268.5,12.6,271.1-7.5,275.9z"/>
		</g>
	</g>
</g>
</svg>
