<?xml version="1.0" encoding="utf-8"?>
<!-- Generator: Adobe Illustrator 19.2.0, SVG Export Plug-In . SVG Version: 6.00 Build 0)  -->
<svg version="1.1" id="Layer_1" xmlns="http://www.w3.org/2000/svg" xmlns:xlink="http://www.w3.org/1999/xlink" x="0px" y="0px"
	 viewBox="0 0 1929 1080" style="enable-background:new 0 0 1929 1080;" xml:space="preserve">
<style type="text/css">
	.st0{fill:#F16824;}
	.st1{fill:url(#SVGID_1_);}
	.st2{fill:url(#SVGID_2_);}
	.st3{fill:url(#SVGID_3_);}
	.st4{fill:url(#SVGID_4_);}
	.st5{fill:url(#SVGID_5_);}
	.st6{fill:url(#SVGID_6_);}
	.st7{fill:url(#SVGID_7_);}
	.st8{fill:url(#SVGID_8_);}
	.st9{fill:url(#SVGID_9_);}
	.st10{fill:url(#SVGID_10_);}
	.st11{opacity:0.8;fill:#E85F2E;enable-background:new    ;}
	.st12{fill:url(#SVGID_11_);}
	.st13{opacity:0.6;fill:url(#SVGID_12_);enable-background:new    ;}
</style>
<rect y="-0.2" class="st0" width="1927" height="1081.6"/>
<linearGradient id="SVGID_1_" gradientUnits="userSpaceOnUse" x1="1502.7999" y1="968.6261" x2="1502.7999" y2="1089.0469" gradientTransform="matrix(1 0 0 1 0 -6.9595)">
	<stop  offset="0" style="stop-color:#FDD40A"/>
	<stop  offset="1" style="stop-color:#F16724"/>
</linearGradient>
<rect x="1360.7" y="798" class="st1" width="284.2" height="281.2"/>
<linearGradient id="SVGID_2_" gradientUnits="userSpaceOnUse" x1="1506.7999" y1="274.5447" x2="1506.8" y2="-102.4194" gradientTransform="matrix(1 0 0 -1 0 1080)">
	<stop  offset="0" style="stop-color:#FDD40A"/>
	<stop  offset="1" style="stop-color:#F16724"/>
</linearGradient>
<path class="st2" d="M1652.9,1084V810.4c-6.8-0.4-13.6-0.7-20.5-0.7c-150,0-271.7,121.6-271.7,271.8c0,0.9,0,1.7,0,2.6L1652.9,1084
	L1652.9,1084z"/>
<linearGradient id="SVGID_3_" gradientUnits="userSpaceOnUse" x1="1502.7999" y1="965.4791" x2="1502.7999" y2="1081.7888" gradientTransform="matrix(1 0 0 -1 0 1080)">
	<stop  offset="0" style="stop-color:#FDD40A"/>
	<stop  offset="1" style="stop-color:#F16724"/>
</linearGradient>
<rect x="1360.7" y="1" class="st3" width="284.2" height="271.6"/>
<linearGradient id="SVGID_4_" gradientUnits="userSpaceOnUse" x1="1506.7999" y1="1148.0848" x2="1506.8" y2="895.9717" gradientTransform="matrix(1 0 0 -1 0 1080)">
	<stop  offset="0" style="stop-color:#FDD40A"/>
	<stop  offset="1" style="stop-color:#F16724"/>
</linearGradient>
<path class="st4" d="M1360.7-3.7c0,0.6,0,1.2,0,1.8c0,150.2,121.7,271.8,271.7,271.8c6.9,0,13.7-0.3,20.5-0.7V-3.7H1360.7z"/>
<linearGradient id="SVGID_5_" gradientUnits="userSpaceOnUse" x1="1788.9" y1="828.2557" x2="1788.9" y2="1066.4916" gradientTransform="matrix(1 0 0 -1 0 1080)">
	<stop  offset="0" style="stop-color:#3A4C95"/>
	<stop  offset="1" style="stop-color:#F16724"/>
</linearGradient>
<rect x="1644.8" y="2.1" class="st5" width="288.2" height="269"/>
<linearGradient id="SVGID_6_" gradientUnits="userSpaceOnUse" x1="1788.95" y1="19.4133" x2="1788.9501" y2="258.3576" gradientTransform="matrix(1 0 0 -1 0 1080)">
	<stop  offset="0" style="stop-color:#3A4C95"/>
	<stop  offset="1" style="stop-color:#F16724"/>
</linearGradient>
<rect x="1644.9" y="810.2" class="st6" width="288.1" height="269.8"/>
<linearGradient id="SVGID_7_" gradientUnits="userSpaceOnUse" x1="1502.7999" y1="538.1806" x2="1502.7999" y2="811.4551" gradientTransform="matrix(1 0 0 -1 0 1080)">
	<stop  offset="0" style="stop-color:#3A4C95"/>
	<stop  offset="1" style="stop-color:#F16724"/>
</linearGradient>
<rect x="1360.7" y="270" class="st7" width="284.2" height="269"/>
<linearGradient id="SVGID_8_" gradientUnits="userSpaceOnUse" x1="1502.7999" y1="289.1557" x2="1502.7999" y2="527.3916" gradientTransform="matrix(1 0 0 -1 0 1080)">
	<stop  offset="0" style="stop-color:#3A4C95"/>
	<stop  offset="1" style="stop-color:#F16724"/>
</linearGradient>
<rect x="1360.7" y="541.2" class="st8" width="284.2" height="269"/>
<linearGradient id="SVGID_9_" gradientUnits="userSpaceOnUse" x1="1644.85" y1="988.2256" x2="1644.85" y2="-71.0333" gradientTransform="matrix(1 0 0 -1 0 1080)">
	<stop  offset="0" style="stop-color:#FDD40A"/>
	<stop  offset="1" style="stop-color:#F16724"/>
</linearGradient>
<polygon class="st9" points="1929,1 1360.7,541.2 1929,1081.3 "/>
<linearGradient id="SVGID_10_" gradientUnits="userSpaceOnUse" x1="1786.9" y1="715.1983" x2="1786.9" y2="258.354" gradientTransform="matrix(1 0 0 -1 0 1080)">
	<stop  offset="0" style="stop-color:#3A4C95"/>
	<stop  offset="1" style="stop-color:#F16724"/>
</linearGradient>
<rect x="1644.8" y="270" class="st10" width="284.2" height="540.2"/>
<path class="st11" d="M885.7,271.5c148.7,0,269.3,120.6,269.3,269.3s-120.6,269.3-269.3,269.3"/>
<linearGradient id="SVGID_11_" gradientUnits="userSpaceOnUse" x1="1790.9" y1="-518.6593" x2="1790.9" y2="-1001.3799" gradientTransform="matrix(1 0 0 1 0 1300)">
	<stop  offset="0" style="stop-color:#3A4C95"/>
	<stop  offset="1" style="stop-color:#F16724"/>
</linearGradient>
<path class="st12" d="M1916.5,814.2c6.9,0,13.7-0.3,20.5-0.7V271.4c-6.8-0.5-13.6-0.7-20.5-0.7c-150.1-0.1-271.7,121.5-271.7,271.7
	S1766.5,814.2,1916.5,814.2z"/>
<polygon class="st11" points="1076.5,270 1360.7,270 1360.7,539 "/>
<polygon class="st11" points="1360.7,541.2 1360.7,810.2 1076.5,810.2 "/>
<path class="st11" d="M1360.7,1080c0-149-120.8-269.8-269.8-269.8S821,931,821,1080H1360.7z"/>
<path class="st11" d="M821,0.2L821,0.2c0,149,120.8,269.8,269.8,269.8s269.8-120.8,269.8-269.8l0,0L821,0.2L821,0.2z"/>
<rect x="616.4" y="271.5" class="st11" width="269.3" height="538.7"/>
<path class="st0" d="M885.7,810.2c-148.7,0-269.3-120.6-269.3-269.3S737,271.5,885.7,271.5"/>
<path class="st11" d="M62.8,810.2c-32.4,0-63.4-5.7-92.1-16.2c-103.3-37.6-177.2-136.8-177.2-253.1c0-117.8,75.7-218,181.1-254.6
	c27.6-9.6,57.3-14.8,88.2-14.8"/>
<rect x="62.9" y="271.5" class="st11" width="269.3" height="538.7"/>
<path class="st0" d="M62.8,271.5c148.7,0,269.3,120.6,269.3,269.3S211.6,810.2,62.8,810.2"/>
<polygon class="st11" points="332.2,812.3 616.4,812.3 616.4,1081.3 "/>
<linearGradient id="SVGID_12_" gradientUnits="userSpaceOnUse" x1="474.3" y1="362" x2="474.3" y2="49.9992">
	<stop  offset="0" style="stop-color:#FDD40A"/>
	<stop  offset="1" style="stop-color:#F16724"/>
</linearGradient>
<polygon class="st13" points="616.4,2.3 616.4,271.3 332.2,271.3 "/>
</svg>
