<?xml version="1.0" encoding="utf-8"?>
<!-- Generator: Adobe Illustrator 19.2.0, SVG Export Plug-In . SVG Version: 6.00 Build 0)  -->
<svg version="1.1" id="Layer_1" xmlns="http://www.w3.org/2000/svg" xmlns:xlink="http://www.w3.org/1999/xlink" x="0px" y="0px"
	 viewBox="0 0 1914 1074" style="enable-background:new 0 0 1914 1074;" xml:space="preserve">
<style type="text/css">
	.st0{clip-path:url(#SVGID_2_);}
	.st1{fill:#547CBC;}
	.st2{opacity:0.11;fill:#0D3F8E;enable-background:new    ;}
	.st3{fill:url(#SVGID_3_);}
	.st4{fill:url(#SVGID_4_);}
	.st5{fill:url(#SVGID_5_);}
	.st6{fill:url(#SVGID_6_);}
	.st7{fill:url(#SVGID_7_);}
	.st8{fill:url(#SVGID_8_);}
	.st9{fill:url(#SVGID_9_);}
	.st10{fill:url(#SVGID_10_);}
	.st11{opacity:0.8;fill:url(#SVGID_11_);enable-background:new    ;}
</style>
<g>
	<g>
		<defs>
			<rect id="SVGID_1_" x="-3" y="-3" width="1920" height="1080"/>
		</defs>
		<clipPath id="SVGID_2_">
			<use xlink:href="#SVGID_1_"  style="overflow:visible;"/>
		</clipPath>
		<g class="st0">
			<rect x="508.4" y="-21.5" class="st1" width="1419.2" height="1124.9"/>
			<circle class="st2" cx="769.4" cy="252.2" r="182.2"/>
			
				<rect x="577.4" y="564.1" transform="matrix(0.7071 -0.7071 0.7071 0.7071 -309.2826 765.4999)" class="st2" width="384" height="384"/>
			
				<linearGradient id="SVGID_3_" gradientUnits="userSpaceOnUse" x1="4136.5" y1="2133.8811" x2="4136.5" y2="1208.1968" gradientTransform="matrix(-1 0 0 -1 4283.2998 2374)">
				<stop  offset="0" style="stop-color:#3A4C95"/>
				<stop  offset="1" style="stop-color:#557DBD"/>
			</linearGradient>
			<rect x="-4.5" y="-13.6" class="st3" width="302.6" height="1092"/>
			
				<linearGradient id="SVGID_4_" gradientUnits="userSpaceOnUse" x1="3861.6001" y1="300.4426" x2="3861.6001" y2="1379.2858" gradientTransform="matrix(-1 0 0 -1 4283.2998 1074)">
				<stop  offset="0" style="stop-color:#3A4C95"/>
				<stop  offset="1" style="stop-color:#557DBD"/>
			</linearGradient>
			<rect x="279.6" y="-21.5" class="st4" width="284.2" height="1115.6"/>
			
				<linearGradient id="SVGID_5_" gradientUnits="userSpaceOnUse" x1="3895" y1="660.5102" x2="3895" y2="285.8812" gradientTransform="matrix(-1 0 0 -1 4283.3501 1074)">
				<stop  offset="0" style="stop-color:#3A4C95"/>
				<stop  offset="1" style="stop-color:#F16724"/>
			</linearGradient>
			<path class="st5" d="M279.6,402c120.1,0,217.5,97.4,217.5,217.5S399.6,837,279.6,837"/>
			
				<linearGradient id="SVGID_6_" gradientUnits="userSpaceOnUse" x1="4112.5" y1="272.3541" x2="4112.5" y2="612.774" gradientTransform="matrix(-1 0 0 -1 4283.3501 1074)">
				<stop  offset="0" style="stop-color:#3A4C95"/>
				<stop  offset="1" style="stop-color:#557DBD"/>
			</linearGradient>
			<path class="st6" d="M279.6,402c-120.1,0-217.5,97.4-217.5,217.5S159.5,837,279.6,837"/>
			
				<linearGradient id="SVGID_7_" gradientUnits="userSpaceOnUse" x1="2744.6265" y1="2064.262" x2="2744.6265" y2="2377.2756" gradientTransform="matrix(-0.7071 0.7071 -0.7071 -0.7071 3759.9153 -205.0855)">
				<stop  offset="0" style="stop-color:#3A4C95"/>
				<stop  offset="1" style="stop-color:#557DBD"/>
			</linearGradient>
			<polyline class="st7" points="279.6,-9.9 118.8,-3 -3.3,119.1 279.6,402 			"/>
			
				<linearGradient id="SVGID_8_" gradientUnits="userSpaceOnUse" x1="421.05" y1="1130.5107" x2="421.05" y2="746.2921" gradientTransform="matrix(1 0 0 -1 0 1074)">
				<stop  offset="0" style="stop-color:#3A4C95"/>
				<stop  offset="1" style="stop-color:#F16724"/>
			</linearGradient>
			<polyline class="st8" points="279.6,-9.9 440.4,-3 562.5,119.1 279.6,402 			"/>
			<circle class="st2" cx="1218" cy="116.8" r="118.8"/>
			
				<rect x="1092.8" y="320.1" transform="matrix(0.7071 -0.7071 0.7071 0.7071 41.8699 991.6729)" class="st2" width="250.4" height="250.4"/>
			<circle class="st2" cx="1218" cy="800.9" r="118.8"/>
			<polyline class="st2" points="1124.4,1084.9 1218,991.3 1313.4,1086.7 			"/>
			<circle class="st2" cx="1638.5" cy="818.3" r="182.2"/>
			
				<rect x="1446.5" y="69.6" transform="matrix(0.7071 -0.7071 0.7071 0.7071 294.9232 1235.2068)" class="st2" width="384" height="384"/>
			
				<linearGradient id="SVGID_9_" gradientUnits="userSpaceOnUse" x1="421.1" y1="222.6935" x2="421.1" y2="-137.0691" gradientTransform="matrix(1 0 0 -1 0 1074)">
				<stop  offset="0" style="stop-color:#3A4C95"/>
				<stop  offset="1" style="stop-color:#F16724"/>
			</linearGradient>
			<path class="st9" d="M562.5,1094.1C548.8,949.8,427.5,837,279.7,837v257.1H562.5z"/>
			
				<linearGradient id="SVGID_10_" gradientUnits="userSpaceOnUse" x1="138.2" y1="-197.1139" x2="138.2" y2="212.4572" gradientTransform="matrix(1 0 0 -1 0 1074)">
				<stop  offset="0" style="stop-color:#3A4C95"/>
				<stop  offset="1" style="stop-color:#557DBD"/>
			</linearGradient>
			<path class="st10" d="M279.6,1094.1V837C131.9,837,10.5,949.9-3.2,1094.1H279.6z"/>
			
				<linearGradient id="SVGID_11_" gradientUnits="userSpaceOnUse" x1="1277.4" y1="-1020" x2="1277.4" y2="-786.4513" gradientTransform="matrix(1 0 0 1 0 1030)">
				<stop  offset="0" style="stop-color:#759ED0"/>
				<stop  offset="1" style="stop-color:#557DBD"/>
			</linearGradient>
			<path class="st11" d="M1218-2c65.6,0,118.8,53.2,118.8,118.8s-53.2,118.8-118.8,118.8"/>
		</g>
	</g>
</g>
</svg>
