<?xml version="1.0" encoding="utf-8"?>
<!-- Generator: Adobe Illustrator 19.2.0, SVG Export Plug-In . SVG Version: 6.00 Build 0)  -->
<svg version="1.1" id="Layer_1" xmlns="http://www.w3.org/2000/svg" xmlns:xlink="http://www.w3.org/1999/xlink" x="0px" y="0px"
	 viewBox="0 0 1929 1080" style="enable-background:new 0 0 1929 1080;" xml:space="preserve">
<style type="text/css">
	.st0{fill:#547CBC;}
	.st1{opacity:0.11;fill:#0D3F8E;enable-background:new    ;}
	.st2{fill:url(#SVGID_1_);}
	.st3{fill:url(#SVGID_2_);}
	.st4{fill:url(#SVGID_3_);}
	.st5{fill:url(#SVGID_4_);}
	.st6{fill:url(#SVGID_5_);}
	.st7{fill:url(#SVGID_6_);}
	.st8{fill:url(#SVGID_7_);}
	.st9{fill:url(#SVGID_8_);}
</style>
<rect x="512.9" y="-0.2" class="st0" width="1419.2" height="1081.6"/>
<circle class="st1" cx="773.9" cy="255.2" r="182.2"/>
<rect x="581.9" y="567.1" transform="matrix(0.7071 -0.7071 0.7071 0.7071 -310.0616 769.5459)" class="st1" width="384" height="384"/>
<linearGradient id="SVGID_1_" gradientUnits="userSpaceOnUse" x1="2014.15" y1="2128.0093" x2="2014.15" y2="901.8824" gradientTransform="matrix(-1 0 0 -1 2298.3 2380)">
	<stop  offset="0" style="stop-color:#3A4C95"/>
	<stop  offset="1" style="stop-color:#557DBD"/>
</linearGradient>
<rect y="1" class="st2" width="568.3" height="1080.4"/>
<linearGradient id="SVGID_2_" gradientUnits="userSpaceOnUse" x1="1872.1" y1="316.1584" x2="1872.1" y2="1351.301" gradientTransform="matrix(-1 0 0 -1 2298.3 1080)">
	<stop  offset="0" style="stop-color:#3A4C95"/>
	<stop  offset="1" style="stop-color:#557DBD"/>
</linearGradient>
<rect x="284.1" y="1" class="st3" width="284.2" height="1070.4"/>
<linearGradient id="SVGID_3_" gradientUnits="userSpaceOnUse" x1="1905.45" y1="663.5102" x2="1905.45" y2="288.8812" gradientTransform="matrix(-1 0 0 -1 2298.3501 1080)">
	<stop  offset="0" style="stop-color:#3A4C95"/>
	<stop  offset="1" style="stop-color:#F16724"/>
</linearGradient>
<path class="st4" d="M284.2,405c120.1,0,217.5,97.4,217.5,217.5S404.2,840,284.2,840"/>
<linearGradient id="SVGID_4_" gradientUnits="userSpaceOnUse" x1="2123.05" y1="275.3541" x2="2123.05" y2="615.774" gradientTransform="matrix(-1 0 0 -1 2298.3501 1080)">
	<stop  offset="0" style="stop-color:#3A4C95"/>
	<stop  offset="1" style="stop-color:#557DBD"/>
</linearGradient>
<path class="st5" d="M284,405c-120.1,0-217.5,97.4-217.5,217.5S163.9,840,284,840"/>
<linearGradient id="SVGID_5_" gradientUnits="userSpaceOnUse" x1="1872.1" y1="224.9491" x2="1872.1" y2="-264.431" gradientTransform="matrix(-1 0 0 -1 2298.3501 1080)">
	<stop  offset="0" style="stop-color:#3A4C95"/>
	<stop  offset="1" style="stop-color:#F16724"/>
</linearGradient>
<path class="st6" d="M284.2,840c156.9,0,284.1,127.2,284.1,284.2s-127.2,284.2-284.1,284.2"/>
<linearGradient id="SVGID_6_" gradientUnits="userSpaceOnUse" x1="2156.3" y1="-282.1016" x2="2156.3" y2="162.5911" gradientTransform="matrix(-1 0 0 -1 2298.3501 1080)">
	<stop  offset="0" style="stop-color:#3A4C95"/>
	<stop  offset="1" style="stop-color:#557DBD"/>
</linearGradient>
<path class="st7" d="M284.1,840C127.2,840,0,967.3,0,1124.2c0,156.9,127.2,284.2,284.1,284.2"/>
<linearGradient id="SVGID_7_" gradientUnits="userSpaceOnUse" x1="1356.8501" y1="1513.0356" x2="1356.8501" y2="1826.0492" gradientTransform="matrix(-0.7071 0.7071 -0.7071 -0.7071 2431.8965 350.9891)">
	<stop  offset="0" style="stop-color:#3A4C95"/>
	<stop  offset="1" style="stop-color:#557DBD"/>
</linearGradient>
<polyline class="st8" points="284.2,-160.7 1.3,122.1 284.2,405 "/>
<linearGradient id="SVGID_8_" gradientUnits="userSpaceOnUse" x1="425.65" y1="1117.2385" x2="425.65" y2="729.9092" gradientTransform="matrix(1 0 0 -1 0 1080)">
	<stop  offset="0" style="stop-color:#3A4C95"/>
	<stop  offset="1" style="stop-color:#F16724"/>
</linearGradient>
<polyline class="st9" points="284.2,-160.7 567.1,122.1 284.2,405 "/>
<circle class="st1" cx="1222.5" cy="119.8" r="118.8"/>
<rect x="1097.3" y="323.1" transform="matrix(0.7071 -0.7071 0.7071 0.7071 41.0725 995.7318)" class="st1" width="250.4" height="250.4"/>
<circle class="st1" cx="1222.5" cy="803.9" r="118.8"/>
<rect x="1097.3" y="1046.2" transform="matrix(0.7071 -0.7071 0.7071 0.7071 -470.2314 1207.5088)" class="st1" width="250.4" height="250.4"/>
<circle class="st1" cx="1643" cy="821.3" r="182.2"/>
<rect x="1451" y="72.6" transform="matrix(0.7071 -0.7071 0.7071 0.7071 294.1304 1239.2766)" class="st1" width="384" height="384"/>
</svg>
