<?xml version="1.0" encoding="utf-8"?>
<!-- Generator: Adobe Illustrator 19.2.0, SVG Export Plug-In . SVG Version: 6.00 Build 0)  -->
<svg version="1.1" id="Layer_1" xmlns="http://www.w3.org/2000/svg" xmlns:xlink="http://www.w3.org/1999/xlink" x="0px" y="0px"
	 viewBox="0 0 1914 1074" style="enable-background:new 0 0 1914 1074;" xml:space="preserve">
<style type="text/css">
	.st0{clip-path:url(#SVGID_2_);}
	.st1{fill:url(#SVGID_3_);}
	.st2{fill:url(#SVGID_4_);}
	.st3{fill:#58539C;}
	.st4{fill:url(#SVGID_5_);}
	.st5{fill:url(#SVGID_6_);}
	.st6{fill:url(#SVGID_7_);}
	.st7{fill:url(#SVGID_8_);}
	.st8{fill:url(#SVGID_9_);}
	.st9{fill:url(#SVGID_10_);}
	.st10{fill:#544F96;}
	.st11{fill:url(#SVGID_11_);}
	.st12{fill:url(#SVGID_12_);}
	.st13{fill:url(#SVGID_13_);}
</style>
<g>
	<g>
		<defs>
			<rect id="SVGID_1_" x="-3" y="-3" width="1920" height="1080"/>
		</defs>
		<clipPath id="SVGID_2_">
			<use xlink:href="#SVGID_1_"  style="overflow:visible;"/>
		</clipPath>
		<g class="st0">
			
				<linearGradient id="SVGID_3_" gradientUnits="userSpaceOnUse" x1="1776.45" y1="999.8865" x2="1776.4501" y2="369.2737" gradientTransform="matrix(1 0 0 -1 0 1074)">
				<stop  offset="0" style="stop-color:#FDD40A"/>
				<stop  offset="1" style="stop-color:#F16724"/>
			</linearGradient>
			<rect x="1634.4" y="-2" class="st1" width="284.1" height="1080.4"/>
			
				<linearGradient id="SVGID_4_" gradientUnits="userSpaceOnUse" x1="1773.45" y1="491.9095" x2="1773.4501" y2="116.4791" gradientTransform="matrix(1 0 0 -1 0 1074)">
				<stop  offset="0" style="stop-color:#58539C"/>
				<stop  offset="1" style="stop-color:#F16724"/>
			</linearGradient>
			<path class="st2" d="M1776.4,389.4L1776.4,389.4c78.5,0,142.1,63.6,142.1,142V1082h-284.1l-6-386.5l6-164
				C1634.4,453,1698,389.4,1776.4,389.4z"/>
			<rect x="-10.5" y="-3.2" class="st3" width="1419.2" height="1081.6"/>
			
				<linearGradient id="SVGID_5_" gradientUnits="userSpaceOnUse" x1="1492.45" y1="186.9753" x2="1492.4501" y2="554.3435" gradientTransform="matrix(1 0 0 -1 0 1074)">
				<stop  offset="0" style="stop-color:#58539C"/>
				<stop  offset="1" style="stop-color:#F16724"/>
			</linearGradient>
			<rect x="1350.5" y="161.8" class="st4" width="283.9" height="916.6"/>
			
				<linearGradient id="SVGID_6_" gradientUnits="userSpaceOnUse" x1="1492.2999" y1="569.6204" x2="1492.2999" y2="906.536" gradientTransform="matrix(1 0 0 -1 0 1074)">
				<stop  offset="0" style="stop-color:#58539C"/>
				<stop  offset="1" style="stop-color:#F16724"/>
			</linearGradient>
			<path class="st5" d="M1350.2,28.6l284.2,1.2v513.3c0,78.5-63.6,142.1-142.1,142.1l0,0c-78.5,0-142.1-63.6-142.1-142.1V28.6z"/>
			
				<linearGradient id="SVGID_7_" gradientUnits="userSpaceOnUse" x1="1770.1499" y1="239.541" x2="1770.15" y2="-119.0757" gradientTransform="matrix(1 0 0 -1 0 1074)">
				<stop  offset="0" style="stop-color:#58539C"/>
				<stop  offset="1" style="stop-color:#F16724"/>
			</linearGradient>
			<path class="st6" d="M1621.7,1082h296.1c0.4-7.1,0.8-14.2,0.8-21.4c0-156.8-127.2-284.1-284.2-284.1"/>
			
				<linearGradient id="SVGID_8_" gradientUnits="userSpaceOnUse" x1="3392.2" y1="-312.7457" x2="3392.2" y2="83.0482" gradientTransform="matrix(-1 0 0 1 5164.75 188.8171)">
				<stop  offset="0" style="stop-color:#58539C"/>
				<stop  offset="1" style="stop-color:#F16724"/>
			</linearGradient>
			<path class="st7" d="M1634.3,302.3c157,0,284.2-127.3,284.2-284.1c0-7.2-0.3-14.3-0.8-21.4h-291.1"/>
			
				<linearGradient id="SVGID_9_" gradientUnits="userSpaceOnUse" x1="1776.4" y1="-386.4386" x2="1776.4" y2="-622.6249" gradientTransform="matrix(1 0 0 1 0 958.7183)">
				<stop  offset="0" style="stop-color:#58539C"/>
				<stop  offset="1" style="stop-color:#F16724"/>
			</linearGradient>
			<circle class="st8" cx="1776.4" cy="537" r="90.8"/>
			
				<linearGradient id="SVGID_10_" gradientUnits="userSpaceOnUse" x1="1492.3" y1="572.2797" x2="1492.3" y2="336.0933" gradientTransform="matrix(1 0 0 -1 0 1074)">
				<stop  offset="0" style="stop-color:#58539C"/>
				<stop  offset="1" style="stop-color:#F16724"/>
			</linearGradient>
			<circle class="st9" cx="1492.3" cy="537" r="90.8"/>
			<path class="st10" d="M778.4,648.1c0,7.2,0.3,14.3,0.8,21.4h-0.8v420.6h283.9V669.5l0.3-305.5C905.6,364,778.4,491.3,778.4,648.1
				z"/>
			<path class="st10" d="M1346.8,648.1c0,7.2-0.3,14.3-0.8,21.4h0.8v420.6h-283.9V669.5l-0.3-305.5
				C1219.7,364,1346.8,491.3,1346.8,648.1z"/>
			<path class="st10" d="M494.2,555.8l0.3-305.5V23.2h283.9v227h-0.8c0.5,7.1,0.8,14.2,0.8,21.4
				C778.4,428.5,651.2,555.7,494.2,555.8z"/>
			<path class="st10" d="M495.1,555.8l-0.3-305.5V-19H211v269.2h0.8c-0.5,7.1-0.8,14.2-0.8,21.4C211,428.5,338.1,555.7,495.1,555.8z
				"/>
			<circle class="st10" cx="1063.5" cy="111.3" r="161.3"/>
			<path class="st3" d="M778.4,715.5c0-78.5,63.6-142.1,142.1-142.1l0,0c78.5,0,142.1,63.6,142.1,142.1v373.4l-284.2,1.2
				L778.4,715.5L778.4,715.5z"/>
			<path class="st10" d="M556.9,931.3c0,7.2-0.3,14.3-0.8,21.4h0.8v137.4H273V952.7l-0.3-305.5C429.7,647.2,556.9,774.4,556.9,931.3
				z"/>
			<path class="st10" d="M-10.5,572c0-78.5,63.6-142.1,142.1-142.1l0,0c78.5,0,142.1,63.6,142.1,142.1v407.6l-284.2,1.3V572z"/>
			<path class="st3" d="M-10.5,931.3c0,7.2,0.3,14.3,0.8,21.4h-0.8v137.4h283.9V952.7l0.3-305.5C116.7,647.2-10.5,774.4-10.5,931.3z
				"/>
			<circle class="st10" cx="920.5" cy="723.7" r="88.1"/>
			<circle class="st3" cx="361.8" cy="302.3" r="88.1"/>
			
				<linearGradient id="SVGID_11_" gradientUnits="userSpaceOnUse" x1="1492.6" y1="-128.7495" x2="1492.6" y2="267.0444" gradientTransform="matrix(1 0 0 -1 0 1074)">
				<stop  offset="0" style="stop-color:#58539C"/>
				<stop  offset="1" style="stop-color:#F16724"/>
			</linearGradient>
			<path class="st11" d="M1634.7,776.5c-157,0-284.2,127.3-284.2,284.1c0,7.2,0.3,14.3,0.8,21.4h283.1"/>
			
				<linearGradient id="SVGID_12_" gradientUnits="userSpaceOnUse" x1="3672.45" y1="142.7212" x2="3672.4502" y2="-215.8954" gradientTransform="matrix(-1 0 0 1 5164.75 101.6406)">
				<stop  offset="0" style="stop-color:#58539C"/>
				<stop  offset="1" style="stop-color:#F16724"/>
			</linearGradient>
			<path class="st12" d="M1634.1-3.2H1351c-0.4,7.1-0.8,14.2-0.8,21.4c0,156.8,127.2,284.1,284.2,284.1"/>
			
				<linearGradient id="SVGID_13_" gradientUnits="userSpaceOnUse" x1="636.3" y1="-744.3448" x2="636.3" y2="-1175.1116" gradientTransform="matrix(1 0 0 1 0 1030)">
				<stop  offset="0" style="stop-color:#58539C"/>
				<stop  offset="1" style="stop-color:#F16724"/>
			</linearGradient>
			<path class="st13" d="M494.2-70.2L778.4-69v242c0,78.5-63.6,142.1-142.1,142.1l0,0c-78.5,0-142.1-63.6-142.1-142.1L494.2-70.2
				L494.2-70.2z"/>
		</g>
	</g>
</g>
</svg>
