<?xml version="1.0" encoding="utf-8"?>
<!-- Generator: Adobe Illustrator 19.2.0, SVG Export Plug-In . SVG Version: 6.00 Build 0)  -->
<svg version="1.1" id="Layer_1" xmlns="http://www.w3.org/2000/svg" xmlns:xlink="http://www.w3.org/1999/xlink" x="0px" y="0px"
	 viewBox="0 0 2536 1212" style="enable-background:new 0 0 2536 1212;" xml:space="preserve">
<style type="text/css">
	.st0{clip-path:url(#SVGID_2_);}
	.st1{fill:none;}
	.st2{fill:url(#SVGID_3_);}
	.st3{fill:#CBE1F4;}
	.st4{fill:url(#SVGID_4_);}
	.st5{fill:url(#SVGID_5_);}
	.st6{fill:url(#SVGID_6_);}
	.st7{fill:url(#SVGID_7_);}
	.st8{fill:url(#SVGID_8_);}
	.st9{fill:url(#SVGID_9_);}
	.st10{fill:url(#SVGID_10_);}
	.st11{fill:url(#SVGID_11_);}
	.st12{fill:url(#SVGID_12_);}
	.st13{fill:url(#SVGID_13_);}
	.st14{fill:#164A9D;}
	.st15{fill:#124697;}
	.st16{fill:#1C4FA0;}
</style>
<g>
	<g>
		<defs>
			<rect id="SVGID_1_" x="-2.8" y="-1.2" width="2541.7" height="1214.3"/>
		</defs>
		<clipPath id="SVGID_2_">
			<use xlink:href="#SVGID_1_"  style="overflow:visible;"/>
		</clipPath>
		<g class="st0">
			<rect x="-2.8" y="-1.2" class="st1" width="2541.7" height="1214.3"/>
			
				<linearGradient id="SVGID_3_" gradientUnits="userSpaceOnUse" x1="2366.5" y1="-263.8192" x2="2366.5002" y2="-467.8402" gradientTransform="matrix(1 0 0 2.1996 0 1037.2875)">
				<stop  offset="0" style="stop-color:#3A4C95"/>
				<stop  offset="1" style="stop-color:#557DBD"/>
			</linearGradient>
			<polygon class="st2" points="2268.1,335 2366.5,450.2 2552.4,462.9 2552.4,126.8 2460.6,36.2 2268.1,-1.2 2180.6,206.2 			"/>
			<polygon class="st3" points="2268.1,335 2180.6,414.2 1984.1,462.9 1920.2,74.2 2268.1,-1.2 			"/>
			<polygon class="st3" points="2268.1,590.9 2392.6,482.2 2552.4,462.9 2552.4,799.1 2410.2,914.2 2268.1,927.1 2180.6,764.2 			
				"/>
			
				<linearGradient id="SVGID_4_" gradientUnits="userSpaceOnUse" x1="2381.4998" y1="158.0572" x2="2381.5002" y2="-57.3403" gradientTransform="matrix(1 0 0 2.1996 0 1037.2875)">
				<stop  offset="0" style="stop-color:#164A9D"/>
				<stop  offset="1" style="stop-color:#557DBD"/>
			</linearGradient>
			<polygon class="st4" points="2268.1,1263.3 2552.4,1391.2 2552.4,988.2 2210.6,901.2 			"/>
			<polygon class="st3" points="2268.1,1263.3 1984.1,1391.2 1930.7,1184.2 1984.2,1002.2 2268.1,927.1 			"/>
			
				<linearGradient id="SVGID_5_" gradientUnits="userSpaceOnUse" x1="2045.1647" y1="-549.6208" x2="2307.4148" y2="-727.6747" gradientTransform="matrix(1 0 0 1 0 1164)">
				<stop  offset="0" style="stop-color:#557DBD"/>
				<stop  offset="1" style="stop-color:#74A7DE"/>
			</linearGradient>
			<polygon class="st5" points="2268.1,335 1984.1,462.9 2114.2,616.2 2268.1,590.9 2552.4,462.9 			"/>
			
				<linearGradient id="SVGID_6_" gradientUnits="userSpaceOnUse" x1="2329.3201" y1="-1013.7584" x2="2591.5703" y2="-1191.8124" gradientTransform="matrix(1 0 0 1 0 1164)">
				<stop  offset="0" style="stop-color:#557DBD"/>
				<stop  offset="1" style="stop-color:#74A7DE"/>
			</linearGradient>
			<polygon class="st6" points="2552.4,-129.2 2268.1,-1.2 2552.4,126.8 2836.5,-1.2 			"/>
			
				<linearGradient id="SVGID_7_" gradientUnits="userSpaceOnUse" x1="2329.3245" y1="-85.4612" x2="2591.5742" y2="-263.5151" gradientTransform="matrix(1 0 0 1 0 1164)">
				<stop  offset="0" style="stop-color:#557DBD"/>
				<stop  offset="1" style="stop-color:#74A7DE"/>
			</linearGradient>
			<polygon class="st7" points="2552.4,799.1 2268.1,927.1 2552.4,1055.2 2836.5,927.1 2670.5,852.3 			"/>
			
				<linearGradient id="SVGID_8_" gradientUnits="userSpaceOnUse" x1="6327" y1="1121.9266" x2="6327" y2="917.9058" gradientTransform="matrix(-1 0 0 -2.1996 8408.2002 2936.7891)">
				<stop  offset="0" style="stop-color:#164A9D"/>
				<stop  offset="1" style="stop-color:#557DBD"/>
			</linearGradient>
			<polygon class="st8" points="2268.1,590.9 1984.1,462.9 1894.2,828.2 2268.1,927.1 			"/>
			<rect x="64.3" y="0.2" class="st1" width="1920" height="1080"/>
			
				<linearGradient id="SVGID_9_" gradientUnits="userSpaceOnUse" x1="1842.15" y1="-263.8192" x2="1842.15" y2="-467.8402" gradientTransform="matrix(1 0 0 2.1996 0 1037.2875)">
				<stop  offset="0" style="stop-color:#164A9D"/>
				<stop  offset="1" style="stop-color:#557DBD"/>
			</linearGradient>
			<polygon class="st9" points="1700.1,335 1782.2,452.2 1984.2,462.9 1984.2,126.8 1904.2,52.2 1700.1,-1.2 			"/>
			<polygon class="st3" points="1700.1,590.9 1802.2,502.2 1984.2,462.9 1984.2,799.1 1886.2,906.2 1700.1,927.1 			"/>
			
				<linearGradient id="SVGID_10_" gradientUnits="userSpaceOnUse" x1="1761.2244" y1="-85.4612" x2="2023.4741" y2="-263.5151" gradientTransform="matrix(1 0 0 1 0 1164)">
				<stop  offset="0" style="stop-color:#557DBD"/>
				<stop  offset="1" style="stop-color:#74A7DE"/>
			</linearGradient>
			<polygon class="st10" points="1984.2,799.1 1700.1,927.1 1820.2,1036.2 1984.2,1055.2 2268.4,927.1 			"/>
			
				<linearGradient id="SVGID_11_" gradientUnits="userSpaceOnUse" x1="1761.2202" y1="-1013.7584" x2="2023.47" y2="-1191.8123" gradientTransform="matrix(1 0 0 1 0 1164)">
				<stop  offset="0" style="stop-color:#557DBD"/>
				<stop  offset="0.9949" style="stop-color:#74A7DE"/>
			</linearGradient>
			<polygon class="st11" points="1984.2,-129.2 1700.1,-1.2 1984.2,126.8 2268.4,-1.2 			"/>
			
				<linearGradient id="SVGID_12_" gradientUnits="userSpaceOnUse" x1="1637.0446" y1="-625.7442" x2="1808.2961" y2="-742.015" gradientTransform="matrix(1 0 0 1 0 1164)">
				<stop  offset="0" style="stop-color:#557DBD"/>
				<stop  offset="1" style="stop-color:#74A7DE"/>
			</linearGradient>
			<polygon class="st12" points="1700.1,335 1700.1,590.9 1984.2,462.9 			"/>
			
				<linearGradient id="SVGID_13_" gradientUnits="userSpaceOnUse" x1="1842.15" y1="158.2085" x2="1842.15" y2="-45.8125" gradientTransform="matrix(1 0 0 2.1996 0 1037.2875)">
				<stop  offset="0" style="stop-color:#164A9D"/>
				<stop  offset="1" style="stop-color:#557DBD"/>
			</linearGradient>
			<polyline class="st13" points="1700.1,1263.3 1984.2,1391.2 1984.2,1055.2 1700.1,927.1 			"/>
			<rect x="-4.8" y="-1.2" class="st1" width="2558.1" height="1214.3"/>
			<rect x="-4.8" y="-1.2" class="st1" width="2543.7" height="1214.3"/>
			<rect x="-2.8" y="-1.2" class="st14" width="1704.9" height="1214.3"/>
			<polyline class="st15" points="1418,799.1 1702.1,927.1 1702.1,590.9 1418,462.9 			"/>
			<polyline class="st15" points="1133.8,335 1418,462.9 1418,126.8 1133.8,-1.2 			"/>
			<polyline class="st15" points="1418,1055.2 1133.8,927.1 1133.8,1263.3 1418,1391.2 			"/>
			<polygon class="st16" points="1418,-129.2 1133.8,-1.2 1418,126.8 1702.1,-1.2 			"/>
			<polygon class="st16" points="1418,799.1 1133.8,927.1 1418,1055.2 1702.1,927.1 1536.1,852.3 			"/>
			<polygon class="st15" points="565.5,335 849.7,462.9 849.7,126.8 565.5,-1.2 			"/>
			<polygon class="st15" points="565.5,590.9 281.4,462.9 281.4,799.1 565.5,927.1 			"/>
			<polygon class="st15" points="-2.8,335 281.4,462.9 281.4,126.8 -2.8,-1.2 -90.3,206.2 			"/>
			<polygon class="st15" points="-2.8,1263.3 281.4,1391.2 281.4,1055.2 -2.8,927.1 			"/>
			<polygon class="st16" points="-2.8,335 -286.9,462.9 -2.8,590.9 281.4,462.9 			"/>
			<polygon class="st16" points="281.4,-129.2 -2.8,-1.2 281.4,126.8 565.5,-1.2 			"/>
			<polygon class="st16" points="849.7,799.1 565.5,927.1 849.7,1055.2 1133.8,927.1 			"/>
			<polygon class="st16" points="849.7,-129.2 565.5,-1.2 849.7,126.8 1133.8,-1.2 			"/>
			<polygon class="st16" points="565.5,335 281.4,462.9 565.5,590.9 849.7,462.9 			"/>
			<polygon class="st15" points="565.5,1263.3 849.7,1391.2 849.7,1055.2 565.5,927.1 			"/>
			<polygon class="st16" points="281.4,799.1 -2.8,927.1 281.4,1055.2 565.5,927.1 399.5,852.3 			"/>
			<polygon class="st15" points="1133.8,590.9 849.7,462.9 849.7,799.1 965.1,851.1 1133.8,927.1 			"/>
			<polygon class="st16" points="1133.8,335 849.7,462.9 1133.8,590.9 1418,462.9 			"/>
			<polyline class="st16" points="1702.2,335 1418.1,462.9 1702.2,590.9 			"/>
		</g>
	</g>
</g>
</svg>
