<?xml version="1.0" encoding="utf-8"?>
<!-- Generator: Adobe Illustrator 19.2.0, SVG Export Plug-In . SVG Version: 6.00 Build 0)  -->
<svg version="1.1" id="Layer_1" xmlns="http://www.w3.org/2000/svg" xmlns:xlink="http://www.w3.org/1999/xlink" x="0px" y="0px"
	 viewBox="0 0 24 24" style="enable-background:new 0 0 24 24;" xml:space="preserve">
<style type="text/css">
	.st0{fill:#6D93D2;}
</style>
<g>
	<g>
		<path class="st0" d="M1.8,8.5h4.4v14.1H1.8V8.5z M4,1.4c1.4,0,2.5,1.1,2.5,2.5S5.3,6.4,4,6.4S1.5,5.3,1.5,3.9
			C1.5,2.5,2.6,1.4,4,1.4"/>
		<path class="st0" d="M9,8.5h4.2v1.9l0,0c0.6-1.1,2.1-2.3,4.1-2.3c4.4,0,5.2,3,5.2,6.7v7.7h-4.3v-6.8c0-1.6,0-3.8-2.3-3.8
			s-2.6,1.8-2.6,3.6v6.9H9V8.5z"/>
	</g>
</g>
</svg>
