<?xml version="1.0" encoding="utf-8"?>
<!-- Generator: Adobe Illustrator 19.2.0, SVG Export Plug-In . SVG Version: 6.00 Build 0)  -->
<svg version="1.1" id="Layer_1" xmlns="http://www.w3.org/2000/svg" xmlns:xlink="http://www.w3.org/1999/xlink" x="0px" y="0px"
	 viewBox="0 0 982.5 254.8" style="enable-background:new 0 0 982.5 254.8;" xml:space="preserve">
<style type="text/css">
	.st0{fill:#FFFFFF;}
</style>
<g>
	<g>
		<path class="st0" d="M107.5,0C90,25.9,79,63.8,79,106s11,80.1,28.5,106c-29.6-23.1-47.9-62-47.9-106C59.6,62,77.9,23.1,107.5,0z"
			/>
	</g>
	<g>
		<path class="st0" d="M63.9,29.2C50.1,47.9,41.3,75.4,41.3,106s8.7,58.1,22.6,76.8c-23.4-16.7-38.8-44.9-38.8-76.8
			C25.1,74.1,40.5,45.9,63.9,29.2z"/>
	</g>
	<g>
		<path class="st0" d="M24.2,56.5C15.6,68.6,10.1,86.3,10.1,106s5.5,37.4,14.1,49.5C9.6,144.7,0,126.6,0,106
			C0,85.4,9.6,67.3,24.2,56.5z"/>
	</g>
	<g>
		<path class="st0" d="M125.7,42.8c17.5,25.9,28.5,63.8,28.5,106s-11,80.1-28.5,106c29.6-23.1,47.9-62,47.9-106
			C173.6,104.8,155.3,65.9,125.7,42.8z"/>
	</g>
	<g>
		<path class="st0" d="M169.3,72c13.8,18.7,22.6,46.2,22.6,76.8s-8.7,58.1-22.6,76.8c23.4-16.7,38.8-44.9,38.8-76.8
			C208.1,116.9,192.7,88.7,169.3,72z"/>
	</g>
	<g>
		<path class="st0" d="M209,99.3c8.6,12.1,14.1,29.8,14.1,49.5s-5.5,37.4-14.1,49.5c14.6-10.8,24.2-28.9,24.2-49.5
			C233.2,128.2,223.6,110.1,209,99.3z"/>
	</g>
</g>
<g>
	<path class="st0" d="M958.2,104.3V90.5H953v-1.9h12.5v1.9h-5.2v13.9H958.2L958.2,104.3z M967.6,104.3V88.6h3.1l3.7,11.1
		c0.3,1,0.6,1.8,0.7,2.3c0.2-0.6,0.5-1.4,0.8-2.5l3.8-10.9h2.8v15.7h-2V91.2l-4.6,13.1h-1.9L969.6,91v13.4H967.6L967.6,104.3z"/>
	<g>
		<path class="st0" d="M383.6,87.3h-75c-9.3,0-19.7,4.6-19.7,13.9v52.3c0,9.3,10.4,13.9,19.7,13.9h89.3v-11h-65.4
			c-4.8,0-7.2-2.4-7.2-7.2v-16.8l58.3,0.1c9.3,0,19.7-4.6,19.7-13.9v-17.3C403.3,91.9,392.9,87.3,383.6,87.3z M367.4,114.1
			c0,4.8-2.4,7.2-7.2,7.2h-34.8v-15.7c0-4.8,2.4-7.2,7.2-7.2h27.6c4.8,0,7.2,2.4,7.2,7.2V114.1z"/>
		<path class="st0" d="M576.7,87.3H524c-7.2,0-15.1,2.8-18.3,8.4c-3.2-5.6-11-8.4-18.3-8.4h-52.7c-9.3,0-19.7,4.6-19.7,13.9v66.2
			h36.4v-61.8c0-4.8,2.4-7.2,7.2-7.2h22c4.8,0,7.2,2.4,7.2,7.2v61.8h35.6v-61.8c0-4.8,2.4-7.2,7.2-7.2h22c4.8,0,7.2,2.4,7.2,7.2
			v61.8h36.4v-66.2C596.4,91.9,586,87.3,576.7,87.3z"/>
		<path class="st0" d="M644.6,167.4V87.3h-16.7c-9.3,0-19.7,4.6-19.7,13.9v66.2H644.6z"/>
		<path class="st0" d="M750.3,122l-50.7,0c-4.8,0-7.2-2.4-7.2-7.2v-9.3c0-4.8,2.4-7.2,7.2-7.2h66.1v-11h-89.6
			c-9.3,0-19.7,4.6-19.7,13.9v18c0,9.3,10.4,13.9,19.7,13.9l50.7,0c4.8,0,7.2,2.4,7.2,7.2v8.8c0,4.8-2.4,7.2-7.2,7.2h-70.5v11h93.9
			c9.3,0,19.7-4.6,19.7-13.9V136C770,126.7,759.6,122,750.3,122z"/>
		<path class="st0" d="M818.2,167.5V87.4h-16.7c-9.3,0-19.7,4.6-19.7,13.9v66.2H818.2z"/>
		<path class="st0" d="M849.6,167.4h75c9.3,0,19.7-4.6,19.7-13.9v-52.3c0-9.3-10.4-13.9-19.7-13.9h-89.3v11h65.4
			c4.8,0,7.2,2.4,7.2,7.2v16.8l-58.3-0.1c-9.3,0-19.7,4.6-19.7,13.9v17.3C829.9,162.8,840.4,167.4,849.6,167.4z M865.9,140.6
			c0-4.8,2.4-7.2,7.2-7.2h34.8v15.7c0,4.8-2.4,7.2-7.2,7.2h-27.6c-4.8,0-7.2-2.4-7.2-7.2V140.6z"/>
	</g>
</g>
</svg>
