<?xml version="1.0" encoding="utf-8"?>
<!-- Generator: Adobe Illustrator 19.2.0, SVG Export Plug-In . SVG Version: 6.00 Build 0)  -->
<svg version="1.1" id="Layer_1" xmlns="http://www.w3.org/2000/svg" xmlns:xlink="http://www.w3.org/1999/xlink" x="0px" y="0px"
	 viewBox="0 0 200 200" style="enable-background:new 0 0 200 200;" xml:space="preserve">
<style type="text/css">
	.st0{fill:#2D5EAC;}
	.st1{fill:#F06725;}
	.st2{fill:#D3D8DE;}
	.st3{opacity:0.1;fill:#010101;}
	.st4{fill:#D7DCE2;}
</style>
<g>
	<rect x="153.9" y="57" class="st0" width="40.6" height="5.1"/>
	<rect x="153.9" y="76.9" class="st1" width="40.6" height="5.1"/>
	<rect x="112" y="96.8" class="st0" width="82.6" height="5.1"/>
	<rect x="132.8" y="117.3" class="st1" width="61.7" height="5.1"/>
	<rect x="121.1" y="137.2" class="st0" width="73.4" height="5.1"/>
	<rect x="121.1" y="157.1" class="st1" width="73.4" height="5.1"/>
	<rect x="136.9" y="37.1" class="st1" width="57.6" height="5.1"/>
	<rect x="149.3" y="57" class="st0" width="45.3" height="5.1"/>
	<rect x="156" y="76.9" class="st1" width="38.5" height="5.1"/>
	<rect x="121.1" y="96.8" class="st0" width="73.4" height="5.1"/>
	<rect x="121.1" y="117.3" class="st1" width="73.4" height="5.1"/>
	<rect x="121.1" y="137.2" class="st0" width="73.4" height="5.1"/>
	<rect x="121.1" y="157.1" class="st1" width="73.4" height="5.1"/>
	<path class="st2" d="M73.1,110.7L73.1,110.7c-2.3-2.3-6.1-2.3-8.4,0l-4.8,4.8c-4.5-1.5-9.7-0.4-13.3,3.2L9.3,156.1
		c-5.1,5.1-5.1,13.4,0,18.5c5.1,5.1,13.4,5.1,18.5,0l37.3-37.3c3.6-3.6,4.6-8.8,3.2-13.3l4.8-4.8C75.4,116.8,75.4,113,73.1,110.7z"
		/>
	<path class="st3" d="M72.6,119.6c-2.3-3.2-4.1-6.6-5.5-10.3c-0.9,0.3-1.7,0.7-2.4,1.4l-4.8,4.8c-1.8-0.6-3.8-0.7-5.7-0.5l8.9,24.1
		l2-2c3.6-3.6,4.6-8.8,3.2-13.3L72.6,119.6z"/>
	<polygon class="st1" points="113.5,128.6 103.6,128.6 103.6,114.5 140.8,114.5 	"/>
	<polygon class="st0" points="149.3,58.1 103.6,58.1 103.6,40.4 138.9,40.4 	"/>
	<rect x="103.6" y="63.7" class="st1" width="51.7" height="17.7"/>
	<polygon class="st0" points="147.5,107.4 103.6,107.4 103.6,89.7 152.9,89.7 	"/>
	<g>
		<path class="st2" d="M107.1,131.8c-14.1,0-28.2-5.4-39-16.1c-21.5-21.5-21.5-56.4,0-77.9c21.5-21.5,56.4-21.5,77.9,0
			c21.5,21.5,21.5,56.4,0,77.9C135.3,126.4,121.2,131.8,107.1,131.8z M107.1,34.2c-11.4,0-22,4.4-30.1,12.5
			c-8,8-12.5,18.7-12.5,30.1c0,11.4,4.4,22,12.5,30.1c16.6,16.6,43.5,16.6,60.1,0c8-8,12.5-18.7,12.5-30.1c0-11.4-4.4-22-12.5-30.1
			C129.2,38.6,118.5,34.2,107.1,34.2z"/>
	</g>
	<g>
		<path class="st4" d="M73.1,110.7L73.1,110.7c-2.3-2.3-6.1-2.3-8.4,0l-4.8,4.8c-4.5-1.5-9.7-0.4-13.3,3.2L9.3,156.1
			c-5.1,5.1-5.1,13.4,0,18.5c5.1,5.1,13.4,5.1,18.5,0l37.3-37.3c3.6-3.6,4.6-8.8,3.2-13.3l4.8-4.8C75.4,116.8,75.4,113,73.1,110.7z"
			/>
		<path class="st3" d="M72.6,119.6c-2.3-3.2-4.1-6.6-5.5-10.3c-0.9,0.3-1.7,0.7-2.4,1.4l-4.8,4.8c-1.8-0.6-3.8-0.7-5.7-0.5l8.9,24.1
			l2-2c3.6-3.6,4.6-8.8,3.2-13.3L72.6,119.6z"/>
		<g>
			<path class="st4" d="M107.1,131.8c-14.1,0-28.2-5.4-39-16.1c-21.5-21.5-21.5-56.4,0-77.9c21.5-21.5,56.4-21.5,77.9,0
				c21.5,21.5,21.5,56.4,0,77.9C135.3,126.4,121.2,131.8,107.1,131.8z M107.1,34.2c-11.4,0-22,4.4-30.1,12.5
				c-8,8-12.5,18.7-12.5,30.1c0,11.4,4.4,22,12.5,30.1c16.6,16.6,43.5,16.6,60.1,0c8-8,12.5-18.7,12.5-30.1c0-11.4-4.4-22-12.5-30.1
				C129.2,38.6,118.5,34.2,107.1,34.2z"/>
		</g>
	</g>
</g>
</svg>
