<?xml version="1.0" encoding="utf-8"?>
<!-- Generator: Adobe Illustrator 19.2.0, SVG Export Plug-In . SVG Version: 6.00 Build 0)  -->
<svg version="1.1" id="Layer_1" xmlns="http://www.w3.org/2000/svg" xmlns:xlink="http://www.w3.org/1999/xlink" x="0px" y="0px"
	 viewBox="0 0 200 200" style="enable-background:new 0 0 200 200;" xml:space="preserve">
<style type="text/css">
	.st0{fill:#2D5EAC;}
	.st1{fill:#FFFFFF;}
	.st2{fill:#D7DCE2;}
	.st3{fill:none;stroke:#FFFFFF;stroke-width:4.8414;stroke-miterlimit:10;}
	.st4{fill:none;stroke:#FFFFFF;stroke-width:4.8414;stroke-linecap:square;stroke-miterlimit:10;}
	.st5{fill:#F06725;}
</style>
<g>
	<path class="st0" d="M15.6,68.8h37.5c5.1,0,9.2-4.1,9.2-9.2V33.1c0-5.1-4.1-9.2-9.2-9.2H13.8c-5.1,0-9.2,4.1-9.2,9.2v44.7
		C4.6,77.7,8.3,68.8,15.6,68.8z"/>
	<path class="st1" d="M51.2,38.8v-4.1H36.7v-5.8h-4.1v5.8H18v4.1h22c-0.8,2.5-2.3,6.3-5.5,10c-2-2.4-3.4-4.9-4.3-7h-4.8
		c1.1,2.9,2.9,6.6,6,10.1c-2.9,2.5-6.7,4.8-11.6,6.3l1.3,4.3c5.8-1.8,10.1-4.4,13.5-7.4c3.4,3,7.7,5.6,13.5,7.4l1.3-4.3
		c-5-1.5-8.7-3.8-11.6-6.3c4.3-5,6.2-10.3,6.9-13.2H51.2z"/>
	
		<ellipse transform="matrix(0.3339 -0.9426 0.9426 0.3339 -24.8177 166.127)" class="st2" cx="105.1" cy="100.6" rx="75.5" ry="75.5"/>
	<path class="st3" d="M79.9,171.8c25.7-3.3,51.3-27.2,62.3-58.1c11.9-33.6,3.7-67.4-11.8-84.3"/>
	<path class="st3" d="M79.9,171.8C62,153.1,57.2,118.4,68.1,87.5c11.9-33.6,39.6-54.7,62.3-58.1"/>
	<path class="st4" d="M142.2,166c-10.4-15.7-27.7-29.1-47.9-36.3c-21-7.4-42.1-7-59.1-1.9"/>
	<path class="st4" d="M175.1,73.1c-18,5.6-39.8,5.2-60-1.9c-21-7.4-37.1-21-47.1-35.7"/>
	<line class="st4" x1="176.3" y1="125.8" x2="33.9" y2="75.4"/>
	<line class="st4" x1="130.4" y1="29.4" x2="79.9" y2="171.8"/>
	<path class="st5" d="M184.4,163.7h-37.5c-5.1,0-9.2-4.1-9.2-9.2v-26.5c0-5.1,4.1-9.2,9.2-9.2h39.3c5.1,0,9.2,4.1,9.2,9.2v44.7
		C195.4,172.6,191.7,163.7,184.4,163.7z"/>
	<g>
		<path class="st1" d="M161.5,148.5l-2.3,6h-4.3l10.7-26.6h4.2l10.6,26.6H176l-2.3-6H161.5z M167.6,132.7l-4.6,11.8h9.2L167.6,132.7
			z"/>
	</g>
</g>
</svg>
