<?xml version="1.0" encoding="utf-8"?>
<!-- Generator: Adobe Illustrator 19.2.0, SVG Export Plug-In . SVG Version: 6.00 Build 0)  -->
<svg version="1.1" id="Layer_1" xmlns="http://www.w3.org/2000/svg" xmlns:xlink="http://www.w3.org/1999/xlink" x="0px" y="0px"
	 viewBox="0 0 24 24" style="enable-background:new 0 0 24 24;" xml:space="preserve">
<style type="text/css">
	.st0{fill:#6D93D2;}
</style>
<g>
	<path class="st0" d="M7.6,17.2c-2.3-0.1-3.8-1.8-4.2-3.2c0.7,0.1,1.3,0.1,1.9-0.1c0,0,0,0,0.1,0c-1.2-0.3-2.2-1-2.9-2.1
		C2,11.1,1.7,10.3,1.7,9.4C2.3,9.7,3,10,3.8,10c-1-0.7-1.7-1.6-1.9-2.8C1.6,6,1.7,4.9,2.3,3.8c2.5,2.9,5.6,4.5,9.4,4.8
		c0-0.2-0.5-1.7,0.6-3.5c0.8-1.1,1.9-1.8,3.1-2c1.6-0.2,2.9,0.2,4,1.2c0.1,0.1,0.1,0.1,0.2,0.1c0.9-0.2,1.8-0.6,2.7-1c0,0,0,0,0.1,0
		l0,0c-0.3,1-1,1.9-1.9,2.5c0.9-0.1,1.7-0.3,2.6-0.7l0,0c-0.2,0.2-0.3,0.4-0.6,0.7C22,6.5,21.4,7,20.8,7.5l-0.1,0.1
		C21.2,21.4,7,22.9,1,19.1c0,0-0.1,0-0.1-0.1c1.6,0.2,3.1,0,4.6-0.7C6.1,18.1,6.9,17.7,7.6,17.2z"/>
</g>
</svg>
