<?xml version="1.0" encoding="utf-8"?>
<!-- Generator: Adobe Illustrator 19.2.0, SVG Export Plug-In . SVG Version: 6.00 Build 0)  -->
<svg version="1.1" id="Layer_1" xmlns="http://www.w3.org/2000/svg" xmlns:xlink="http://www.w3.org/1999/xlink" x="0px" y="0px"
	 viewBox="0 0 200 200" style="enable-background:new 0 0 200 200;" xml:space="preserve">
<style type="text/css">
	.st0{fill:#2D5EAC;}
	.st1{fill:#D3D8DE;}
	.st2{fill:#F06725;}
</style>
<g>
	<path class="st0" d="M68.6,97.5H29V60.8H32C52.2,60.8,68.6,77.2,68.6,97.5L68.6,97.5z"/>
	<rect x="29" y="113.5" class="st1" width="39.6" height="36.6"/>
	<rect x="80.2" y="60.8" class="st1" width="39.6" height="36.6"/>
	<path class="st1" d="M152.6,150.1h-2.9c-10.1,0-18.3-8.2-18.3-18.3v0c0-10.1,8.2-18.3,18.3-18.3h2.9c10.1,0,18.3,8.2,18.3,18.3v0
		C171,141.9,162.8,150.1,152.6,150.1z"/>
	<rect x="131.4" y="60.8" class="st2" width="39.6" height="36.6"/>
	<rect x="80.2" y="113.5" class="st0" width="39.6" height="36.6"/>
	<path class="st1" d="M188.5,35.4c0-4.5-3.6-8.2-8.2-8.2H19.7c-4.5,0-8.2,3.6-8.2,8.2l0,129.4c0,4.4,3.6,7.9,7.9,7.9h161
		c4.4,0,7.9-3.6,7.9-7.9L188.5,35.4z M19.5,163V46.5h160.9V163H19.5z"/>
	<g>
		<circle class="st2" cx="24.3" cy="37.4" r="2.6"/>
		<circle class="st2" cx="33.4" cy="37.4" r="2.6"/>
		<circle class="st2" cx="42.5" cy="37.4" r="2.6"/>
	</g>
</g>
</svg>
